<mxfile host="app.diagrams.net" agent="Mozilla/5.0 (Windows NT 10.0; Win64; x64) AppleWebKit/537.36 (KHTML, like Gecko) Chrome/133.0.0.0 Safari/537.36" version="26.0.16" pages="4">
  <diagram name="Página-1" id="VmioWCymI-7dS4N9BATN">
    <mxGraphModel dx="983" dy="529" grid="1" gridSize="10" guides="1" tooltips="1" connect="1" arrows="1" fold="1" page="1" pageScale="1" pageWidth="827" pageHeight="1169" background="#FFFFFF" math="0" shadow="0">
      <root>
        <mxCell id="0" />
        <mxCell id="1" parent="0" />
        <mxCell id="L4-Ch7NJEb9iGi4rkdxF-21" style="edgeStyle=orthogonalEdgeStyle;rounded=0;orthogonalLoop=1;jettySize=auto;html=1;exitX=1;exitY=1;exitDx=0;exitDy=0;exitPerimeter=0;strokeColor=#788AA3;fontColor=#46495D;fillColor=#B2C9AB;" edge="1" parent="1" source="L4-Ch7NJEb9iGi4rkdxF-11">
          <mxGeometry relative="1" as="geometry">
            <mxPoint x="220" y="360" as="targetPoint" />
            <Array as="points">
              <mxPoint x="221" y="270" />
            </Array>
          </mxGeometry>
        </mxCell>
        <mxCell id="L4-Ch7NJEb9iGi4rkdxF-11" value="Recepcionista" style="shape=umlActor;verticalLabelPosition=bottom;verticalAlign=top;html=1;outlineConnect=0;" vertex="1" parent="1">
          <mxGeometry x="80" y="170" width="50" height="100" as="geometry" />
        </mxCell>
        <mxCell id="L4-Ch7NJEb9iGi4rkdxF-12" value="" style="curved=1;endArrow=classic;html=1;rounded=0;strokeColor=#788AA3;fontColor=#46495D;fillColor=#B2C9AB;" edge="1" parent="1">
          <mxGeometry width="50" height="50" relative="1" as="geometry">
            <mxPoint x="150" y="230" as="sourcePoint" />
            <mxPoint x="200" y="180" as="targetPoint" />
            <Array as="points">
              <mxPoint x="200" y="230" />
              <mxPoint x="150" y="180" />
            </Array>
          </mxGeometry>
        </mxCell>
        <mxCell id="L4-Ch7NJEb9iGi4rkdxF-14" value="Confirmar reserva" style="ellipse;whiteSpace=wrap;html=1;" vertex="1" parent="1">
          <mxGeometry x="210" y="120" width="120" height="80" as="geometry" />
        </mxCell>
        <mxCell id="L4-Ch7NJEb9iGi4rkdxF-27" value="Gerenciar disponibilidade de quartos" style="ellipse;whiteSpace=wrap;html=1;" vertex="1" parent="1">
          <mxGeometry x="160" y="370" width="120" height="80" as="geometry" />
        </mxCell>
      </root>
    </mxGraphModel>
  </diagram>
  <diagram id="_-FOKWSLN6DMkpnK757N" name="Página-2">
    <mxGraphModel dx="980" dy="529" grid="1" gridSize="10" guides="1" tooltips="1" connect="1" arrows="1" fold="1" page="1" pageScale="1" pageWidth="827" pageHeight="1169" math="0" shadow="0">
      <root>
        <mxCell id="0" />
        <mxCell id="1" parent="0" />
        <mxCell id="ptRsk4JXtPVAznSgspXf-1" value="Cliente" style="shape=umlActor;verticalLabelPosition=bottom;verticalAlign=top;html=1;outlineConnect=0;" vertex="1" parent="1">
          <mxGeometry x="110" y="160" width="60" height="110" as="geometry" />
        </mxCell>
        <mxCell id="ptRsk4JXtPVAznSgspXf-3" value="" style="curved=1;endArrow=classic;html=1;rounded=0;strokeColor=#788AA3;fontColor=#46495D;fillColor=#B2C9AB;" edge="1" parent="1" source="ptRsk4JXtPVAznSgspXf-1">
          <mxGeometry width="50" height="50" relative="1" as="geometry">
            <mxPoint x="190" y="190" as="sourcePoint" />
            <mxPoint x="280" y="140" as="targetPoint" />
            <Array as="points">
              <mxPoint x="240" y="190" />
              <mxPoint x="190" y="140" />
            </Array>
          </mxGeometry>
        </mxCell>
        <mxCell id="ptRsk4JXtPVAznSgspXf-4" value="Cancelar reserva" style="ellipse;whiteSpace=wrap;html=1;" vertex="1" parent="1">
          <mxGeometry x="300" y="100" width="120" height="80" as="geometry" />
        </mxCell>
        <mxCell id="u1swqguR0DFSlEJ_lo4x-5" value="" style="endArrow=classic;html=1;rounded=0;strokeColor=#788AA3;fontColor=#46495D;fillColor=#B2C9AB;exitX=1;exitY=1;exitDx=0;exitDy=0;exitPerimeter=0;" edge="1" parent="1" source="ptRsk4JXtPVAznSgspXf-1">
          <mxGeometry width="50" height="50" relative="1" as="geometry">
            <mxPoint x="190" y="270" as="sourcePoint" />
            <mxPoint x="280" y="320" as="targetPoint" />
          </mxGeometry>
        </mxCell>
        <mxCell id="u1swqguR0DFSlEJ_lo4x-6" value="Fazer reserva" style="ellipse;whiteSpace=wrap;html=1;" vertex="1" parent="1">
          <mxGeometry x="294" y="280" width="120" height="80" as="geometry" />
        </mxCell>
      </root>
    </mxGraphModel>
  </diagram>
  <diagram id="2t0n5cTKQuEfrez6ev5d" name="Página-3">
    <mxGraphModel dx="979" dy="529" grid="1" gridSize="10" guides="1" tooltips="1" connect="1" arrows="1" fold="1" page="1" pageScale="1" pageWidth="827" pageHeight="1169" math="0" shadow="0">
      <root>
        <mxCell id="0" />
        <mxCell id="1" parent="0" />
        <mxCell id="W72LqPIIs-XV3fEVrYFa-1" value="Cliente" style="shape=umlActor;verticalLabelPosition=bottom;verticalAlign=top;html=1;outlineConnect=0;" vertex="1" parent="1">
          <mxGeometry x="60" y="170" width="40" height="60" as="geometry" />
        </mxCell>
        <mxCell id="W72LqPIIs-XV3fEVrYFa-13" value="" style="endArrow=classic;html=1;rounded=0;strokeColor=#788AA3;fontColor=#46495D;fillColor=#B2C9AB;" edge="1" parent="1">
          <mxGeometry width="50" height="50" relative="1" as="geometry">
            <mxPoint x="80" y="160" as="sourcePoint" />
            <mxPoint x="130" y="110" as="targetPoint" />
          </mxGeometry>
        </mxCell>
        <mxCell id="W72LqPIIs-XV3fEVrYFa-14" value="" style="endArrow=classic;html=1;rounded=0;strokeColor=#788AA3;fontColor=#46495D;fillColor=#B2C9AB;" edge="1" parent="1">
          <mxGeometry width="50" height="50" relative="1" as="geometry">
            <mxPoint x="100" y="180" as="sourcePoint" />
            <mxPoint x="170" y="160" as="targetPoint" />
          </mxGeometry>
        </mxCell>
        <mxCell id="W72LqPIIs-XV3fEVrYFa-15" value="" style="endArrow=classic;html=1;rounded=0;strokeColor=#788AA3;fontColor=#46495D;fillColor=#B2C9AB;" edge="1" parent="1">
          <mxGeometry width="50" height="50" relative="1" as="geometry">
            <mxPoint x="100" y="220" as="sourcePoint" />
            <mxPoint x="190" y="340" as="targetPoint" />
          </mxGeometry>
        </mxCell>
        <mxCell id="W72LqPIIs-XV3fEVrYFa-16" value="navegar pelo catálogo" style="ellipse;whiteSpace=wrap;html=1;strokeColor=#788AA3;fontColor=#46495D;fillColor=#B2C9AB;" vertex="1" parent="1">
          <mxGeometry x="120" y="50" width="100" height="60" as="geometry" />
        </mxCell>
        <mxCell id="W72LqPIIs-XV3fEVrYFa-17" value="colocar item no carrinho" style="ellipse;whiteSpace=wrap;html=1;strokeColor=#788AA3;fontColor=#46495D;fillColor=#B2C9AB;" vertex="1" parent="1">
          <mxGeometry x="180" y="110" width="100" height="70" as="geometry" />
        </mxCell>
        <mxCell id="W72LqPIIs-XV3fEVrYFa-19" value="finalizar compra" style="ellipse;whiteSpace=wrap;html=1;strokeColor=#788AA3;fontColor=#46495D;fillColor=#B2C9AB;" vertex="1" parent="1">
          <mxGeometry x="170" y="350" width="95" height="70" as="geometry" />
        </mxCell>
        <mxCell id="W72LqPIIs-XV3fEVrYFa-21" value="" style="endArrow=none;dashed=1;html=1;dashPattern=1 3;strokeWidth=2;rounded=0;strokeColor=#788AA3;fontColor=#46495D;fillColor=#B2C9AB;" edge="1" parent="1">
          <mxGeometry width="50" height="50" relative="1" as="geometry">
            <mxPoint x="220" y="340" as="sourcePoint" />
            <mxPoint x="230" y="300" as="targetPoint" />
          </mxGeometry>
        </mxCell>
        <mxCell id="W72LqPIIs-XV3fEVrYFa-23" value="informar endereço" style="ellipse;whiteSpace=wrap;html=1;strokeColor=#788AA3;fontColor=#46495D;fillColor=#B2C9AB;" vertex="1" parent="1">
          <mxGeometry x="180" y="220" width="100" height="70" as="geometry" />
        </mxCell>
        <mxCell id="W72LqPIIs-XV3fEVrYFa-24" value="" style="endArrow=none;dashed=1;html=1;dashPattern=1 3;strokeWidth=2;rounded=0;strokeColor=#788AA3;fontColor=#46495D;fillColor=#B2C9AB;" edge="1" parent="1">
          <mxGeometry width="50" height="50" relative="1" as="geometry">
            <mxPoint x="270" y="350" as="sourcePoint" />
            <mxPoint x="320" y="270" as="targetPoint" />
          </mxGeometry>
        </mxCell>
        <mxCell id="W72LqPIIs-XV3fEVrYFa-25" value="&amp;nbsp;preencher dados do cartão de crédito" style="ellipse;whiteSpace=wrap;html=1;strokeColor=#788AA3;fontColor=#46495D;fillColor=#B2C9AB;" vertex="1" parent="1">
          <mxGeometry x="300" y="200" width="100" height="70" as="geometry" />
        </mxCell>
        <mxCell id="W72LqPIIs-XV3fEVrYFa-26" value="" style="endArrow=none;dashed=1;html=1;dashPattern=1 3;strokeWidth=2;rounded=0;strokeColor=#788AA3;fontColor=#46495D;fillColor=#B2C9AB;" edge="1" parent="1">
          <mxGeometry width="50" height="50" relative="1" as="geometry">
            <mxPoint x="414" y="230" as="sourcePoint" />
            <mxPoint x="484" y="230" as="targetPoint" />
          </mxGeometry>
        </mxCell>
        <mxCell id="W72LqPIIs-XV3fEVrYFa-27" value="verificar dados do cartão de crédito" style="ellipse;whiteSpace=wrap;html=1;strokeColor=#788AA3;fontColor=#46495D;fillColor=#B2C9AB;" vertex="1" parent="1">
          <mxGeometry x="490" y="195" width="100" height="75" as="geometry" />
        </mxCell>
        <mxCell id="W72LqPIIs-XV3fEVrYFa-29" value="" style="endArrow=none;dashed=1;html=1;dashPattern=1 3;strokeWidth=2;rounded=0;strokeColor=#788AA3;fontColor=#46495D;fillColor=#B2C9AB;" edge="1" parent="1">
          <mxGeometry width="50" height="50" relative="1" as="geometry">
            <mxPoint x="290" y="390" as="sourcePoint" />
            <mxPoint x="490" y="390" as="targetPoint" />
          </mxGeometry>
        </mxCell>
        <mxCell id="W72LqPIIs-XV3fEVrYFa-30" value="faturar compra" style="ellipse;whiteSpace=wrap;html=1;strokeColor=#788AA3;fontColor=#46495D;fillColor=#B2C9AB;" vertex="1" parent="1">
          <mxGeometry x="490" y="345" width="100" height="75" as="geometry" />
        </mxCell>
        <mxCell id="W72LqPIIs-XV3fEVrYFa-31" value="Sistema" style="shape=umlActor;verticalLabelPosition=bottom;verticalAlign=top;html=1;outlineConnect=0;" vertex="1" parent="1">
          <mxGeometry x="680" y="240" width="40" height="70" as="geometry" />
        </mxCell>
        <mxCell id="W72LqPIIs-XV3fEVrYFa-32" value="" style="endArrow=classic;html=1;rounded=0;strokeColor=#788AA3;fontColor=#46495D;fillColor=#B2C9AB;" edge="1" parent="1">
          <mxGeometry width="50" height="50" relative="1" as="geometry">
            <mxPoint x="660" y="250" as="sourcePoint" />
            <mxPoint x="600" y="240" as="targetPoint" />
          </mxGeometry>
        </mxCell>
        <mxCell id="W72LqPIIs-XV3fEVrYFa-33" value="" style="endArrow=classic;html=1;rounded=0;strokeColor=#788AA3;fontColor=#46495D;fillColor=#B2C9AB;" edge="1" parent="1">
          <mxGeometry width="50" height="50" relative="1" as="geometry">
            <mxPoint x="660" y="310" as="sourcePoint" />
            <mxPoint x="600" y="370" as="targetPoint" />
          </mxGeometry>
        </mxCell>
        <mxCell id="W72LqPIIs-XV3fEVrYFa-34" value="enviar gmail" style="ellipse;whiteSpace=wrap;html=1;strokeColor=#788AA3;fontColor=#46495D;fillColor=#B2C9AB;" vertex="1" parent="1">
          <mxGeometry x="550" y="450" width="100" height="80" as="geometry" />
        </mxCell>
        <mxCell id="W72LqPIIs-XV3fEVrYFa-37" value="" style="endArrow=classic;html=1;rounded=0;strokeColor=#788AA3;fontColor=#46495D;fillColor=#B2C9AB;" edge="1" parent="1" target="W72LqPIIs-XV3fEVrYFa-34">
          <mxGeometry width="50" height="50" relative="1" as="geometry">
            <mxPoint x="690" y="340" as="sourcePoint" />
            <mxPoint x="640" y="420" as="targetPoint" />
          </mxGeometry>
        </mxCell>
      </root>
    </mxGraphModel>
  </diagram>
  <diagram id="Vm7T-ghSGk0KCkngIYRK" name="Página-4">
    <mxGraphModel dx="983" dy="529" grid="1" gridSize="10" guides="1" tooltips="1" connect="1" arrows="1" fold="1" page="1" pageScale="1" pageWidth="827" pageHeight="1169" math="0" shadow="0">
      <root>
        <mxCell id="0" />
        <mxCell id="1" parent="0" />
        <mxCell id="Ds7fyq79uXkt97A-Eps8-1" value="Actor" style="shape=umlActor;verticalLabelPosition=bottom;verticalAlign=top;html=1;outlineConnect=0;" vertex="1" parent="1">
          <mxGeometry x="60" y="190" width="60" height="90" as="geometry" />
        </mxCell>
        <mxCell id="fBZGgt6PV14TuVNy---o-1" value="" style="curved=1;endArrow=classic;html=1;rounded=0;strokeColor=#788AA3;fontColor=#46495D;fillColor=#B2C9AB;" edge="1" parent="1">
          <mxGeometry width="50" height="50" relative="1" as="geometry">
            <mxPoint x="130" y="210" as="sourcePoint" />
            <mxPoint x="180" y="160" as="targetPoint" />
            <Array as="points">
              <mxPoint x="180" y="210" />
              <mxPoint x="130" y="160" />
            </Array>
          </mxGeometry>
        </mxCell>
        <mxCell id="fBZGgt6PV14TuVNy---o-2" value="" style="ellipse;whiteSpace=wrap;html=1;strokeColor=#788AA3;fontColor=#46495D;fillColor=#B2C9AB;" vertex="1" parent="1">
          <mxGeometry x="180" y="110" width="100" height="70" as="geometry" />
        </mxCell>
      </root>
    </mxGraphModel>
  </diagram>
</mxfile>
